Motion_pl17
version=1
nRows=13
nColumns=43
inDegrees=yes
endheader
time	pelvis_tilt	pelvis_list	pelvis_rotation	pelvis_tx	pelvis_ty	pelvis_tz	hip_flexion_r	hip_adduction_r	hip_rotation_r	knee_angle_r	ankle_angle_r	subtalar_angle_r	mtp_angle_r	hip_flexion_l	hip_adduction_l	hip_rotation_l	knee_angle_l	ankle_angle_l	subtalar_angle_l	mtp_angle_l	lumbar_extension	lumbar_bending	lumbar_rotation	neck_flexion	neck_lateral_bending	neck_rotation	arm_flex_r	arm_add_r	arm_rot_r	elbow_flex_r	pro_sup_r	wrist_flex_r	wrist_dev_r	hand_finger_flex_r	arm_flex_l	arm_add_l	arm_rot_l	elbow_flex_l	pro_sup_l	wrist_flex_l	wrist_dev_l	hand_finger_flex_l
      0.69250000	      1.63901081	    -23.52302297	     88.89264320	      0.04326072	      1.92687689	      1.47272255	     49.56192857	      5.52052706	      7.63693745	    -98.71778250	    -15.56802342	      6.26578623	     32.44219339	     60.80840995	    -10.42795598	     -3.74388453	   -101.08643625	     -8.28957548	    -10.19363611	     24.98931175	    -28.86691286	     -0.25233361	     -1.11199604	     17.27348216	     -1.03184887	      5.34865963	    114.81756315	     -7.72618460	     16.06528515	     66.46730104	    111.14420154	     -1.98248167	      2.86335599	     30.04379582	    125.66740904	    -21.17718853	     40.17858246	     66.69960406	     86.60056538	    -12.35216717	      3.14535633	     27.36191441
      0.69500000	      1.63773417	    -23.48287806	     88.87453669	      0.04318968	      1.92745916	      1.46875408	     49.59117905	      5.61745976	      7.72595783	    -98.38254792	    -15.44613209	      6.25406409	     32.46691405	     60.94776947	    -10.36322445	     -3.62234600	   -100.66499565	     -8.24183484	    -10.17579338	     24.99074662	    -28.93321336	     -0.29621342	     -1.14576182	     17.34112436	     -1.03308600	      5.36257781	    114.64724175	     -7.69573782	     16.11354532	     66.31134521	    111.15046036	     -2.00186390	      2.91308365	     30.02013933	    125.51966687	    -21.20204022	     40.26314130	     66.58978574	     86.64009255	    -12.34508211	      3.17597344	     27.35697059
      0.69750000	      1.66525575	    -23.41705180	     88.87255855	      0.04325713	      1.92778847	      1.46472433	     49.52629147	      5.77525892	      7.79386265	    -98.11383675	    -14.42723407	      6.13542744	     32.63961004	     61.10024069	    -10.32438862	     -3.41568420	   -100.29816187	     -8.09541594	     -9.98604280	     25.00290207	    -28.97830497	     -0.31342311	     -1.30426431	     17.21770874	     -1.00673682	      5.48645285	    114.33305753	     -7.39517836	     15.92790929	     66.05179892	    111.15620867	     -2.31479994	      3.08798679	     29.81890530	    125.34963300	    -21.39643506	     40.41252974	     66.54166842	     86.92888712	    -12.34134789	      3.25014283	     27.32334389
      0.70000000	      1.67817076	    -23.34482108	     88.87411639	      0.04321037	      1.92818901	      1.46067365	     49.48297712	      5.86556036	      7.81960887	    -97.80116418	    -13.72120362	      6.03819153	     32.70410900	     61.22553488	    -10.27867427	     -3.27019014	    -99.86614805	     -7.99564778	     -9.74594198	     25.01805602	    -29.04075039	     -0.32858570	     -1.44929429	     17.10934143	     -1.01853542	      5.65122672	    114.01892790	     -7.16853530	     15.82827752	     65.82052126	    111.21702787	     -2.54404741	      3.22312788	     29.64230027	    125.14981059	    -21.60152872	     40.57093322	     66.51691714	     87.23864662	    -12.31787266	      3.34385703	     27.29267104
      0.70250000	      1.67248600	    -23.29002234	     88.82927239	      0.04311447	      1.92863387	      1.45676582	     49.54624445	      5.90913852	      7.83719163	    -97.47522966	    -13.56770505	      5.99049290	     32.70215860	     61.35151340	    -10.25356389	     -3.17944898	    -99.38212328	     -7.96527305	     -9.70785336	     25.02040880	    -29.12997366	     -0.37725894	     -1.45434112	     17.17644687	     -1.01412537	      5.67055386	    113.79603956	     -7.13385786	     15.88477405	     65.62253529	    111.23824103	     -2.54806971	      3.27297806	     29.62259241	    124.94754979	    -21.66587238	     40.67374866	     66.38429225	     87.29080479	    -12.30394121	      3.38938006	     27.28895148
      0.70500000	      1.63699198	    -23.21167748	     88.76769757	      0.04320555	      1.92880070	      1.45274488	     49.49229624	      6.01395523	      7.88129338	    -97.22345653	    -12.39539022	      5.46557413	     32.67091721	     61.48679326	    -10.22955947	     -3.04878051	    -98.96170294	     -7.97487580	     -9.36211077	     25.04254824	    -29.18017381	     -0.45478525	     -1.62419035	     16.97175701	     -1.02584674	      5.85036685	    113.41815440	     -6.80980521	     15.70211916	     65.29971420	    111.29203458	     -2.73256451	      3.38995100	     29.48205399	    124.67759060	    -21.93776490	     40.80362762	     66.38562098	     87.62987863	    -12.29433181	      3.50798672	     27.25066678
      0.70750000	      1.62740332	    -23.14212232	     88.71070590	      0.04310369	      1.92912189	      1.44886425	     49.57690051	      6.03448746	      7.87663503	    -96.90903776	    -12.27322256	      5.39175414	     32.64534414	     61.60201197	    -10.20722592	     -2.95930971	    -98.46781801	     -7.95150783	     -9.31015936	     25.04644665	    -29.28359146	     -0.50966276	     -1.62532854	     17.04421778	     -1.02456867	      5.87830027	    113.14231744	     -6.78040003	     15.76608333	     65.09281893	    111.31404663	     -2.71824943	      3.43619901	     29.47453824	    124.43435930	    -22.02639621	     40.91744237	     66.23816362	     87.68792637	    -12.27960118	      3.56374711	     27.24667938
      0.71000000	      1.52881540	    -23.05391748	     88.64812833	      0.04317660	      1.92923190	      1.44480574	     49.54756349	      6.04882638	      7.88255083	    -96.64772770	    -11.30483744	      4.52469439	     32.42912719	     61.70998562	    -10.14253332	     -2.87701959	    -98.01385909	     -8.01078601	     -8.81196907	     25.08351597	    -29.33051195	     -0.63192511	     -1.84512602	     16.72327239	     -1.05724861	      6.12123458	    112.66981571	     -6.45752229	     15.55680354	     64.78121291	    111.36329317	     -2.77299432	      3.51346064	     29.42567014	    124.06794407	    -22.33545030	     41.01864014	     66.28815532	     88.07353526	    -12.29849067	      3.73729691	     27.19486625
      0.71250000	      1.51617904	    -22.96696777	     88.57504754	      0.04305173	      1.92940030	      1.44094650	     49.66452778	      6.03656922	      7.85347646	    -96.35708802	    -11.24741900	      4.42536843	     32.37979306	     61.81545429	    -10.12074961	     -2.78532696	    -97.54079588	     -7.98445404	     -8.75570296	     25.08936454	    -29.45239165	     -0.69054564	     -1.83503768	     16.81671575	     -1.04776117	      6.14462403	    112.34730705	     -6.43268005	     15.63365196	     64.55986065	    111.38674785	     -2.73455381	      3.55802232	     29.43390817	    123.78742317	    -22.43660532	     41.13270889	     66.11461002	     88.13077665	    -12.28798018	      3.80513989	     27.18970996
      0.71500000	      1.64018079	    -22.91064339	     88.65034347	      0.04326050	      1.92936165	      1.43693104	     49.78399675	      6.14829069	      7.48413641	    -96.08002010	    -10.96898229	      2.67834692	     29.68747105	     61.99178135	    -10.20139904	     -2.48305429	    -97.13088127	     -7.54617031	     -7.55008039	     25.49758330	    -29.47608222	     -0.59850063	     -1.98875637	     16.53735132	     -1.04543365	      6.46741316	    111.75945515	     -5.95997056	     14.97318574	     64.24988330	    112.33620810	     -2.06812860	      3.33400826	     29.71143467	    123.20155582	    -22.63000542	     40.72370012	     66.29142519	     89.79478914	    -12.06487540	      4.70625745	     27.00529204
      0.71750000	      1.60880431	    -22.80276006	     88.56294372	      0.04316447	      1.92944196	      1.43307226	     49.89426033	      6.12093449	      7.48256426	    -95.75732475	    -10.90630206	      2.60041884	     29.65086953	     62.11135642	    -10.15108227	     -2.37512741	    -96.71399172	     -7.55039279	     -7.53019108	     25.50304606	    -29.62130661	     -0.68981124	     -1.99280468	     16.62667102	     -1.03871191	      6.46924976	    111.38111784	     -5.96305681	     15.06911036	     64.01281188	    112.33764582	     -2.02686123	      3.38782665	     29.72062853	    122.86940235	    -22.73115937	     40.82357616	     66.10854210	     89.79738900	    -12.05186220	      4.74238020	     27.00457053
      0.72000000	      1.34202089	    -22.67912885	     88.51977817	      0.04289747	      1.92950891	      1.42894230	     49.94538691	      5.83356471	      7.45393824	    -95.45971421	    -10.64042945	      1.49272079	     29.27544955	     62.13143135	     -9.89277506	     -2.45188235	    -96.18882888	     -7.74217145	     -7.18509454	     25.55705897	    -29.68820201	     -0.92144374	     -2.26789035	     16.11336066	     -1.07493840	      6.56632755	    110.74740232	     -5.81730162	     14.92014178	     63.79552287	    112.20703389	     -1.91715138	      3.48058410	     29.77453886	    122.20668042	    -22.88519730	     40.64083757	     66.07349028	     89.77784808	    -12.15407012	      4.77103954	     26.95220400
      0.72250000	      1.32213198	    -22.55964587	     88.42544398	      0.04275855	      1.92939975	      1.42513267	     50.11500263	      5.78132726	      7.41326484	    -95.15769782	    -10.64854396	      1.38858545	     29.22199805	     62.23475453	     -9.86449873	     -2.36450422	    -95.79798283	     -7.71680774	     -7.16394812	     25.56383533	    -29.84821399	     -0.99130977	     -2.24580765	     16.25119158	     -1.05926332	      6.56996729	    110.34039769	     -5.82766393	     15.02504486	     63.55173022	    112.21955353	     -1.86190639	      3.53924005	     29.78971404	    121.86267454	    -23.00395128	     40.75013352	     65.83439867	     89.79876310	    -12.14647075	      4.83692891	     26.94873348
